/* XPM */
static char *_3bee8cd2d7541d2e8c5018622c68def7MTv4p2o10DJ2tRi[] = {
/* columns rows colors chars-per-pixel */
"64 64 225 2 ",
"   c None",
".  c #1E1B1E",
"X  c #211D1F",
"o  c #36291F",
"O  c #392B1F",
"+  c #34271F",
"@  c #2F261F",
"#  c #231F20",
"$  c #252121",
"%  c #2B2523",
"&  c #2E2825",
"*  c #342B23",
"=  c #3A2D22",
"-  c #332D29",
";  c #312722",
":  c #3D3125",
">  c #3B342B",
",  c #3F382D",
"<  c #3D3731",
"1  c #433425",
"2  c #463826",
"3  c #4B3A26",
"4  c #423629",
"5  c #443A2C",
"6  c #4B3D2A",
"7  c #523D27",
"8  c #523E28",
"9  c #423B32",
"0  c #483E36",
"q  c #4C412E",
"w  c #54432B",
"e  c #5A452A",
"r  c #5C4A2C",
"t  c #534429",
"y  c #4C4237",
"u  c #524532",
"i  c #564933",
"p  c #5C4C32",
"a  c #53463A",
"s  c #544B3A",
"d  c #594D3B",
"f  c #594634",
"g  c #5E523B",
"h  c #5F5035",
"j  c #634C2C",
"k  c #6A4E2B",
"l  c #63532D",
"z  c #6C532E",
"x  c #6B5A2F",
"c  c #72542D",
"v  c #7A582E",
"b  c #645334",
"n  c #6D5B32",
"m  c #63553A",
"M  c #6D5D3C",
"N  c #685738",
"B  c #745C34",
"V  c #765C35",
"C  c #664F2F",
"Z  c #746433",
"A  c #75623C",
"S  c #7A643A",
"D  c #7C6938",
"F  c #6F603E",
"G  c #584E42",
"H  c #5D5344",
"J  c #625442",
"K  c #6B5B43",
"L  c #6B5E4C",
"P  c #645A47",
"I  c #725B44",
"U  c #6D6148",
"Y  c #746442",
"T  c #7E6C45",
"R  c #786649",
"E  c #736553",
"W  c #7C6A52",
"Q  c #7B6B57",
"!  c #7C715A",
"~  c #706550",
"^  c #836B3D",
"/  c #866A39",
"(  c #89713C",
")  c #96793E",
"_  c #846B48",
"`  c #887447",
"'  c #987948",
"]  c #897758",
"[  c #9B7C57",
"{  c #8C6E50",
"}  c #A57C4D",
"|  c #A57C4D",
" . c #A07E55",
".. c #8E7A61",
"X. c #CF9F2A",
"o. c #C69739",
"O. c #CB9A30",
"+. c #D0A02A",
"@. c #CEA033",
"#. c #D7AA39",
"$. c #CFA02D",
"%. c #9B8248",
"&. c #968358",
"*. c #A68747",
"=. c #B48B45",
"-. c #B8954A",
";. c #A3835B",
":. c #A58454",
">. c #AD9356",
",. c #B99959",
"<. c #AF8F50",
"1. c #978565",
"2. c #90836B",
"3. c #A78A66",
"4. c #AE916A",
"5. c #B49463",
"6. c #BC9B65",
"7. c #B2956D",
"8. c #BD9D6A",
"9. c #B79B66",
"0. c #AB9374",
"q. c #B39572",
"w. c #B69975",
"e. c #BA9D75",
"r. c #BB9E7A",
"t. c #B69B78",
"y. c #B8A169",
"u. c #BDA17D",
"i. c #BBA175",
"p. c #BDA250",
"a. c #CC9642",
"s. c #CA9947",
"d. c #D29B45",
"f. c #D19A44",
"g. c #C39D5B",
"h. c #D5A24A",
"j. c #D9A74E",
"k. c #D5AD4B",
"l. c #CDA453",
"z. c #C9A557",
"x. c #DCAC52",
"c. c #D3AA56",
"v. c #DFB156",
"b. c #DDB55B",
"n. c #D2AC4F",
"m. c #E2B65B",
"M. c #E4BA5E",
"N. c #E3B955",
"B. c #E3B94F",
"V. c #C19F63",
"C. c #C4A263",
"Z. c #C3A36B",
"A. c #CBA866",
"S. c #D1AF6C",
"D. c #D0AC67",
"F. c #D9B666",
"G. c #C4A573",
"H. c #C2A57B",
"J. c #C6A97D",
"K. c #C9AB7A",
"L. c #CAB27A",
"P. c #D5B677",
"I. c #CBB167",
"U. c #E4BC62",
"Y. c #E8BE62",
"T. c #E2BD6C",
"R. c #E1BE72",
"E. c #EAC35C",
"W. c #DFC172",
"Q. c #EAC265",
"!. c #ECC669",
"~. c #EEC96C",
"^. c #E3C468",
"/. c #F1CC6D",
"(. c #E6C777",
"). c #F2CF71",
"_. c #F5D273",
"`. c #F8D776",
"'. c #F5D57C",
"]. c #FAD97A",
"[. c #FAD877",
"{. c #F1D075",
"}. c #BFBEBD",
"|. c #C6A982",
" X c #CAAD84",
".X c #C5A883",
"XX c #CCB383",
"oX c #CDB28A",
"OX c #D3B789",
"+X c #CEBE9D",
"@X c #D1BE96",
"#X c #C8BFAA",
"$X c #C0BEBC",
"%X c #C4BEB4",
"&X c #DDC48A",
"*X c #D6C396",
"=X c #E4C987",
"-X c #FBDB83",
";X c #FBDD8B",
":X c #F4D687",
">X c #E4CD95",
",X c #E9D299",
"<X c #FBDF92",
"1X c #F6DC9D",
"2X c #F3D995",
"3X c #EBD189",
"4X c #FCE094",
"5X c #FDE29C",
"6X c #FEE18E",
"7X c #CDC2A8",
"8X c #C7C2B8",
"9X c #D5CBB4",
"0X c #DBCEB2",
"qX c #EAD6A7",
"wX c #F4DDA8",
"eX c #E6D7B6",
"rX c #E3CAA0",
"tX c #FDE3A4",
"yX c #FEE5AB",
"uX c #FBE5AC",
"iX c #FDE6B2",
"pX c #FFE8B5",
"aX c #FFE9B8",
"sX c #F8E4B7",
"dX c #BEBEC0",
/* pixels */
"                                                    % & - - 4 - , * * * % %                                                     ",
"                                            # > > g q D m n ^ p ^ N m S q l 4 4 * %                                             ",
"                                        , > Y g T T g T i b m 6 b i t Z i V V r V 1 6 %                                         ",
"                                  % > g U Y ` d M 5 5 q 2 q 5 6 2 2 : : : = w 5 N z C c 4 1 #                                   ",
"                                & U H &.s U , q i l l r r t r t e t w w 6 2 1 1 ; 2 4 B j k 6 *                                 ",
"                            > < &.H ! , q l x b l l D ` *.-.,.p.,.-.<.%.( V p w 3 1 = ; 8 3 / 3 w #                             ",
"                          < H ] U y q Z Z l n %.V.W.{.'.].].{.U.b.~./.~.Q.U.c.<.( N w 1 * = 1 c e j ;                           ",
"                      - < ..L L q Z D l D y.(.2X6X;X;X-X-X]._.W.W.~._._.~.!.!.Q.U.l.*.S u 1 o * 8 k r 2 #                       ",
"                    & < 2.H H u ( x D Z.2X5X5X4X<X;X;X;X-X[.~.A.D.~._.).)./.!.!.Q.!.M.x.*.V u 1 * : v 8 w X                     ",
"                  % G 2.H G g Z n >.2XyXqXtX5X5X4X<X<X;X).k.T.A.F.E.k.).)././.!.!.E.(.T.M.l.' N 2 = ; c 7 e $                   ",
"                X L E L y x x ( &XuXsXsX9X0XqX1XQ.:X<X<X).#.g.A.I.k.#.`._._.N.B.!.(.#X@XT.U.m.=.S q = ; k j 2 &                 ",
"              # P H ! < x l %.,XiXsXsX8XdX}.0X5Xx.N.<X<X!.X.o.g.-.+.+./.[./.#.B.(.#X}.}.+XU.U.M.s.` i = ; e v : &               ",
"              u G &.> l l >.qXsXaXaXaXeX$X8XwXtX:X#.B.M.#.+.+.+.+.X.+.#.B.#.#./.).*X}.$XP.Q.Y.F.F.j.` p = = 6 v *               ",
"            - ~ &.> r l >.tXiX0X9XsXaXeXeXeXeXyXtXb.X.X.+.+.+.+.+.+.+.+.+.+.E._.).=X=X&X(.!.T.+XOXM.n.` i O 1 8 z =             ",
"          $ ~ W < q r *.4XuX9X}.8X9XsXpXpXiXyXyXyX:X+.+.+.+.+.+.+.+.+.+.+.#.[.[._._././.!.(.%X$X%XOXM.l._ q ; 8 e w *           ",
"          g P g q t ` :X5XtXeX}.dXeXaXpXpXpXiXyXyXyXN.+.+.+.+.+.+.+.+.+.+.!.[.[._._.).)./.!.7X}.%XR.M.m.s.A 3 ; e c =           ",
"        > d ` , t Z (.5X5XtXqX9X0XeXaXaXaXaXuXiXiXwX:X@.@.@.O.o.o.o.@.$.#.'.].].[._._.).).~.*X*X*XR.Y.U.M.=.m = * e c ;         ",
"      . d &.q 5 t I.6X,X0X5XtXtXuXuXuXaXaXaXaXaXsXsXOX:.V.V.K.G.G.9.S.A.F.-X-X'.[.`.`._._.).~.!.!.^.T.@XU.m.' 8 O 3 w r %       ",
"      q R i > q %.'.qX8X8X9X,XtXtXuXuXuXsXaXaXuXsXqX ... XH.q.4.9.4.8.G.i.:X-X'.'.[.[.{.).~.~.!.!.=X#X$X#XP.l.V 1 * z e ;       ",
"      q F h : l ^.:X,X8X}.9X5XL.P P P P *XaXaX0.L G a { OXoXG.H.H.K.9.H s g g U W.].[.,.g g g Y T.(.%XdX%XR.Y.*.e * : v w       ",
"    & T T * 2 *.].6X2X8X7X0X5Xy.# . . $ @XaXaX! . . . E .XG.q.4.4.4.m X X . X ] :X-X].&.. . . > F.).7X7X@XQ.U.c.S 1 = 6 r =     ",
"    s F q : r ^.].,X:X;X6X2X5Xi.$ # # & L.uXuX! X # . E .X.X X XH.W $ X # . H 3X-X-X].&.X # X , F.).(.~.(.!.(.Q.*.6 + r k *     ",
"  & q A q = ( `.>X8X,X2X;X6X6Xy.$ # # & L.uXuX! . # # L H.q.4.q.] ; # # . > 9.<X;X-X-X&.X # X , T._./.!.(.@X#XP.z.b O = V z $   ",
"  - T Z o 2 p.>X%X}.%X,X-X-X6Xy.$ # # & XXtXuX! # # # E oX.Xr..Xy X $ X % &.y.3X<X;X-X&.X # X , W._._./.*X$X$X#XP.( 4 = 6 u *   ",
"  5 g q O r E.'.7XdX8X-X-X;X6Xy.$ $ # & XXtX>Xa # # # L t.t.0.G $ # . # L K.G.K.4X;X6X&.. X X , ^.[._._.(.%X}.*X!.=.6 O r B *   ",
"  q D q O D ~.{.>X3X>X].-X-X6Xy.$ $ # & L.wX8.a # # X E .X.X..# # # . G 0.J.K.w.2X4X4X&.X # X , ^.[._._.3X&X=X&X~.c.j O : V r   ",
"$ N A > O ) /._.`.`.].].-X-X].y.$ # X & L.=X .a # # X L t...& # # X < 3.H.H.K.e.OX4X4X&.X # X , (.'.`._._._./././.U.V O = f 2 # ",
"% q h * : -./.)._.`.'.].].].].y.$ X X & K.e.[ a X # # L .Xa # # # % ] .XH.H.G.K.8.2X5X1.X X X , (.].[.`._._.)././.Q.` 1 = V n & ",
"* Z V * 3 z.!./.).)._.[.[.].].y.$ # X & 1.1.3.a X # # H G # # # # E .Xr.w.J. X X3.&X5X&.X # # , (.-X].'.`.`._._././.*.3 * w p * ",
"* b w o q l.Q.!.~./._.`.[.[.].y.$ # X & W >.[ u X # # > # # # # 0 0.r.r.w.|. XK.q.e.5X1.X $ X , (.:X-X].].`._._.)./.<.2 = p b ; ",
"* b r * t l.Q.Q.~.~./._.`.`.].,.$ # # $ W 3.;.a X # # # # # # < 0..Xq..X.X.XH. XXX4.>X1.. # X < (.;X-X-X'.].`.`._._.-.2 = p ^ 1 ",
"4 D p + r n.M.M.^.!.~./._.`.].y.$ $ # & ` &.[ P # # # # # # # { t.t.q.r.r.H.t.H.XXi.K.1.X # $ < =X6X:X-X-X].[.`.`._.z.6 = 6 i ; ",
"; e 5 o r l.m.M.Y.Q.!.~.~._.'.,.$ # # % {  .3.P # # $ # # X X E q..X.X Xr..XoXoX.X|.7.] # # . 9 &X<X;X;X-X-X'.[.'.`.z.6 o p ^ 4 ",
"4 V r o i s.m.m.M.Y.Q.!.~./.`.,.$ # # % _  .Z.K # # # $ # X X & { q.q.t.q.t..X.X.X.Xq.J # # . 4 =X1X;X;X;X-X].].[.[.z.3 : i N * ",
"; j r o t -.m.m.M.M.Y.Q.!.~.).,.$ # # % { ;.S.K # # # 0 : # # X > 3..X X X.X.X.XoX X.XH # # # 9 >X<X<X<X;X;X-X-X].].,.3 = i b : ",
"- r q + t =.x.m.m.M.M.Q.Q.!./.,.$ # # % _ 5.S.K . # # J I % # # # 0 3.q.q.q.q..X.X.X.XE . # # 9 >X1X<X<X;X;X;X-X-X].*.3 : A D - ",
"& z B = 1 *.x.x.x.m.m.M.Y.Y.~.<.$ # $ $ R D.S.K . # # J G.J X # # # W .X.X XoX Xt.oXoXQ # # # < >X1X4X4X<X<X;X;X-X'.) 2 : p u % ",
"X 1 r = = ( h.x.x.m.m.m.U.Y.Y.5.$ # # % { A.A.P # # # J 7.[ 9 X # # % { 4.0.t..X.X.XoX] . # # 9 >XtXtX4X<X<X<X;X;X'.D 2 > A M % ",
"  e z = O B s.j.x.x.x.m.m.U.U.} # # # % ' A.D.K . # # K Z.V.[ - # # # 9 q.H..X X.X.XoXQ # # # < ,XtXtX1X5X<X<X<X;X(.j 2 u T q   ",
"  * z e * r -.h.j.x.x.m.v.m.x._ $ # # % ;.A.V.d # # # K 5.5.w.I # # # # 0 3.G.q..X.X.XQ # # . 9 ,XyXtXtXtX4X5X<X;XC.t 2 q m 5   ",
"  * 8 3 * 1 } d.j.j.x.x.v.m.| I $ # # % ;.A.A.K # # # I V.G.Z.5.d # # # # _ .Xr.H. XoXQ # # . < ,XyXyXtX5X1X5X4X<X%.3 : F ` -   ",
"  $ j c * 1 D a.h.h.j.j.x.j.{ _ $ # # $ ' C.V.' # # # K 5.5.5.7.;.9 # # # % ] H.H.e. XQ # # # 9 qXyXyXyXtXtXtX5X=Xn t q D y $   ",
"    * j t o i =.d.h.h.j.x.|  .{ % # # # _ V.V.,.5 # # K 5.6.V.V.7.] % # # X 0 t.G.H. XL . # # y qXpXyXyXyXtXtX5Xy.t 3 q F d     ",
"    = e 3 * 1 ( f.d.h.h.s.{ | { & # # . I g.,.6.{ # # I V.V.5.5.V.8._ # # # 0 4.H.J.J.0 # # # G wXpXiXyXyXyXyX2X/ t : _ _ &     ",
"      7 v : O p =.o.d.h.| { | } - # # # f ,.<.6.,.m # N 6.6.,.5.6.8.5.0 # # _ q.H.G.0.- # # # a rXaXpXiXyXyXyXI.r q g U q       ",
"      ; 7 k * 1 ` o.d.d.' } | | 8 # # # ; } g.g.g.g._ R V.V.6.C.V.V.V.5.0 d V.G.G.H._ # # # # W .XsXpXpXiXiX1XD r 5 s T q       ",
"      % 7 7 3 o 7 | o.d.=.{ | | _ # # # # b g.g.A.A.A.z.D.D.S.S.S.S.P.P.5.w.P.P.P.G.0 X # # < t.3.qXaXpXiXyX,.t t q &.d X       ",
"        ; c e ; 1 I a.f.d.| { | | 5 # # # ; ' g.z.g.C.A.D.D.D.D.S.S.S.K.P.S.K.P.K.W X # # # L OX4..XaXaXpX&Xx l , ] d >         ",
"          = k e @ 2 ` o.f.a.| { | V # # # # 4 | 5.g.,.g.6.V.V.V.C.C.C.Z.Z.i.Z.y.&.& # # . & 3.L.q...wXaX1XD x q P P P           ",
"          * 7 7 7 ; u ' o.a.a.} } ' 6 # # # # > _  .} [  . .;.;.;.;.;.&.;.>.;.U & # # # # U 3.1.3.3.>XwX:.l h 9 W ~ %           ",
"            * k 3 1 O p } o.a.a.d.d.| 1 # # # # > } D.Y.Y.!.!.)._._.{.'.'.(.] & X X # . H >X<X1XwXtXwX<.h x - 2.~ -             ",
"              * v 3 = O p } o.a.d.d.d.) % # # # # ; b <.F.Q.)._.`.`.{.W.>.i # # # X . 9 W.4X5X5X5X2X,.z Z - ..H s               ",
"              & O c 7 ; 1 f ' o.o.d.d.h./ & . $ # # X % 6 M ` %.%.` P , # # # # # . 9 L.6X4X4X5X:X<.x Z q ! H L #               ",
"                @ 1 j k @ = 8 _ =.o.d.d.h.) : # # # # # X X . # X . X X # # # # X H W.;X6X6X4X(.) Z Z y L ~ ~ $                 ",
"                  # 7 3 c ; = 2 M *.o.f.d.h.=.r # . # # # # # # # X $ # # X X > &.(.:X-X-X].I.Z D Z s H 2.G $                   ",
"                    # 7 3 c = ; : e _ =.a.d.h.d.} e & X X X # # X X X X # > D y.'.].-X].^.%.Z D t H G 2.< -                     ",
"                      # 1 e k 7 * = 1 p ( =.a.h.j.h.=./ p 6 : & - > u F %.F.`.].`.{.^.*.x Z x , U ~ ] > -                       ",
"                          ; j 7 k 1 = ; 1 w V ' =.f.j.B.x.l.l.l.z.c.U.!.).).~.M.p.( l l l q s P ! H <                           ",
"                            X 7 3 v 2 3 ; = = 3 r n ( ) =.-.l.l.c.n.l.-.*.) Z l t l t q 5 T H &.< >                             ",
"                                * 3 k j k 1 1 ; * = = 1 3 q t r r i t t t t t q q , M i &.g F &                                 ",
"                                  # : : k j k j 2 3 * * o * O = = , : : , q , N p ` Y U g - &                                   ",
"                                        % 3 2 B w B z r B q e p q l h i D b D T g Y > ,                                         ",
"                                            % ; : 1 C 6 B b b ^ t D N h A q g , > $                                             ",
"                                                    % % * * * 4 - 4 * - % %                                                     "
};
