/* XPM */
static char *_3166351fc3943d5b8cd0e10f708cab9ELRdNbuKFumNtDj8[] = {
/* columns rows colors chars-per-pixel */
"16 16 206 2 ",
"   c None",
".  c #312A27",
"X  c #352E29",
"o  c #38302B",
"O  c #3D3329",
"+  c #3D332B",
"@  c #38302C",
"#  c #3F372F",
"$  c #473525",
"%  c #473625",
"&  c #473726",
"*  c #483625",
"=  c #493826",
"-  c #483827",
";  c #493927",
":  c #4A3927",
">  c #493A27",
",  c #41352B",
"<  c #42382D",
"1  c #433A2E",
"2  c #4B3B28",
"3  c #4A3B29",
"4  c #483B2A",
"5  c #4C3C29",
"6  c #4E3D29",
"7  c #4E3F2B",
"8  c #523F28",
"9  c #523F29",
"0  c #503F2A",
"q  c #453C30",
"w  c #4A3F33",
"e  c #483E35",
"r  c #483E36",
"t  c #50402B",
"y  c #52402A",
"u  c #51422C",
"i  c #50422D",
"p  c #52432D",
"a  c #52452F",
"s  c #55442C",
"d  c #54452E",
"f  c #58492F",
"g  c #4C4333",
"h  c #4F4430",
"j  c #484035",
"k  c #4C4336",
"l  c #494138",
"z  c #484139",
"x  c #4C4238",
"c  c #4E433A",
"v  c #504430",
"b  c #514631",
"n  c #504532",
"m  c #504632",
"M  c #534833",
"N  c #574930",
"B  c #564931",
"V  c #574A32",
"C  c #524834",
"Z  c #544934",
"A  c #544A39",
"S  c #554B3B",
"D  c #554C3D",
"F  c #564D3D",
"G  c #564E3F",
"H  c #5A4B38",
"J  c #5A4C3F",
"K  c #5D4E3C",
"L  c #624C2D",
"P  c #614D2F",
"I  c #614D30",
"U  c #605336",
"Y  c #605339",
"T  c #675B3E",
"R  c #6F5A39",
"E  c #685B3C",
"W  c #715831",
"Q  c #725831",
"!  c #735C36",
"~  c #7A6237",
"^  c #554A40",
"/  c #584E40",
"(  c #595041",
")  c #6F5D45",
"_  c #6C5C49",
"`  c #6C5C4C",
"'  c #755F48",
"]  c #776744",
"[  c #7F6743",
"{  c #796A4A",
"}  c #7E684A",
"|  c #7B6C4B",
" . c #7A684F",
".. c #7D6D4E",
"X. c #816537",
"o. c #846637",
"O. c #86663A",
"+. c #816A3D",
"@. c #97773D",
"#. c #A27B3C",
"$. c #A37C3E",
"%. c #806D46",
"&. c #806E46",
"*. c #8C7846",
"=. c #807049",
"-. c #87754A",
";. c #88714B",
":. c #8D7248",
">. c #967F47",
",. c #91774C",
"<. c #987E4A",
"1. c #8B7651",
"2. c #8F7C5C",
"3. c #A57C49",
"4. c #947D62",
"5. c #CFA130",
"6. c #D1A231",
"7. c #9D8149",
"8. c #AD8242",
"9. c #A4804A",
"0. c #AF8D48",
"q. c #B6964F",
"w. c #A58D52",
"e. c #A58D57",
"r. c #A98C53",
"t. c #AA8A55",
"y. c #A38F59",
"u. c #A78C58",
"i. c #A1885F",
"p. c #AA8C5E",
"a. c #AA9359",
"s. c #B29452",
"d. c #B49754",
"f. c #B79657",
"g. c #B69A58",
"h. c #B89D5A",
"j. c #9A8367",
"k. c #A38F67",
"l. c #A08868",
"z. c #A38B6C",
"x. c #B39562",
"c. c #BF9E63",
"v. c #BB9E64",
"b. c #A78F71",
"n. c #AD9372",
"m. c #AE9471",
"M. c #AF9870",
"N. c #AE9D79",
"B. c #BA9F73",
"V. c #BEA576",
"C. c #BDA874",
"Z. c #C19E55",
"A. c #C19E5F",
"S. c #D3A14C",
"D. c #C2A15F",
"F. c #E4B458",
"G. c #E1BA5A",
"H. c #C6A765",
"J. c #C4A962",
"K. c #C5AA67",
"L. c #CFAF61",
"P. c #CBB36D",
"I. c #D5B96A",
"U. c #DDBF6D",
"Y. c #C5AD76",
"T. c #CCB370",
"R. c #C7B07F",
"E. c #CBB17D",
"W. c #D3B872",
"Q. c #D5BB72",
"!. c #D7B976",
"~. c #E1BB60",
"^. c #E8C056",
"/. c #EDC264",
"(. c #EEC764",
"). c #E9C46A",
"_. c #E0C477",
"`. c #E9C970",
"'. c #F7D270",
"]. c #FCDA78",
"[. c #C5A781",
"{. c #C6A880",
"}. c #C2AE80",
"|. c #D1BB83",
" X c #D4BB81",
".X c #D9BE81",
"XX c #CFBC94",
"oX c #D0BD90",
"OX c #E1C584",
"+X c #E1C884",
"@X c #EACD80",
"#X c #EBCE82",
"$X c #F6D681",
"%X c #FFDF86",
"&X c #F1D689",
"*X c #E2CB91",
"=X c #E3CE96",
"-X c #E5CF9B",
";X c #E3CB9F",
":X c #E5D09E",
">X c #F6DC9B",
",X c #FFE395",
"<X c #E3D1A4",
"1X c #ECD7A8",
"2X c #F3DFB1",
"3X c #F0DFBB",
/* pixels */
"          Z V V d 7 7           ",
"      G T -.a.g.s.7.! s ;       ",
"    / | }.-X$X~.G.(.!.p.P ;     ",
"  A ] oX3X2X).5.6.G.`.+Xv.P ;   ",
"  U C.<XoX1XV.A.f.J.`.K..Xu.8   ",
"v &.=X|.D N.^ n./ ..P.M W. XR ; ",
"i w.&XQ.x 2.r ` x B.Y.g U.#X<.7 ",
"i q.'.I.q ' . @ j.{.M.k _.].d.7 ",
"7 0./.L.1 } X o 4.[.z.r +X%Xh.i ",
"4 @.F.Z.1 ;.w ) r m.b.x *X,Xe.v ",
"* Q S.3.O ,.H p.K _ l.r :X>X&.v ",
"  8 #.3.< [ t.c.x.i. .c :X}.Y   ",
"  $ P 8.O.O :.D.H.1.< k.E.{ A   ",
"    * P #.o.4 h n h y.P.;.(     ",
"      * 8 Q X.~ +.>.*.E G       ",
"          * 7 s V V C           "
};
