/* XPM */
static char *_de5f2378ebc4c3c94d0f925a075b5725lwDTO27FRTHRPMN[] = {
/* columns rows colors chars-per-pixel */
"32 32 201 2 ",
"   c None",
".  c #1E1B1E",
"X  c #211D1F",
"o  c #221F20",
"O  c #262122",
"+  c #2B2524",
"@  c #2E2925",
"#  c #322C27",
"$  c #342E2A",
"%  c #3D2F24",
"&  c #3E3125",
"*  c #3D352C",
"=  c #3E3832",
"-  c #3F3730",
";  c #443526",
":  c #473927",
">  c #4A3926",
",  c #46392A",
"<  c #4B3C29",
"1  c #483726",
"2  c #533D27",
"3  c #513E28",
"4  c #443C32",
"5  c #4A3E31",
"6  c #4D402D",
"7  c #54432C",
"8  c #58452C",
"9  c #5A4A2D",
"0  c #4B4133",
"q  c #4F443B",
"w  c #534631",
"e  c #564931",
"r  c #5B4D33",
"t  c #51463C",
"y  c #534B3D",
"u  c #5A4C3D",
"i  c #5E5137",
"p  c #5D523B",
"a  c #645433",
"s  c #6B5733",
"d  c #6C5934",
"f  c #62553A",
"g  c #64593B",
"h  c #735C34",
"j  c #755E3F",
"k  c #644E36",
"l  c #7A6439",
"z  c #534B40",
"x  c #5C5244",
"c  c #655A45",
"v  c #665B4A",
"b  c #645645",
"n  c #715E41",
"m  c #6F6140",
"M  c #74614C",
"N  c #7A654B",
"B  c #7E6A40",
"V  c #7C6851",
"C  c #836B3C",
"Z  c #8A6D3B",
"A  c #89713E",
"S  c #92753E",
"D  c #876C45",
"F  c #916E45",
"G  c #8A7442",
"H  c #917542",
"J  c #977A47",
"K  c #8D7252",
"L  c #88745A",
"P  c #947C54",
"I  c #937B5C",
"U  c #987C55",
"Y  c #A27A4D",
"T  c #937D62",
"R  c #AE853F",
"E  c #CF9F2A",
"W  c #CF9F27",
"Q  c #D09F28",
"!  c #CFA02D",
"~  c #D9AD3E",
"^  c #D4A531",
"/  c #9A8348",
"(  c #998156",
")  c #AA8340",
"_  c #AB8849",
"`  c #A28451",
"'  c #A48C5C",
"]  c #A78B55",
"[  c #B68E52",
"{  c #AD965A",
"}  c #B9955C",
"|  c #B98D48",
" . c #9C8667",
".. c #A48A67",
"X. c #AB926C",
"o. c #B69663",
"O. c #B49B64",
"+. c #BB9B63",
"@. c #AB9876",
"#. c #BB9D74",
"$. c #BB9E7B",
"%. c #B59874",
"&. c #BFA46A",
"*. c #BEA768",
"=. c #BBA473",
"-. c #BEA17C",
";. c #B5A37C",
":. c #CF9B47",
">. c #C79C4B",
",. c #C89442",
"<. c #C29B56",
"1. c #D29C46",
"2. c #CCA34B",
"3. c #D8A849",
"4. c #C6A053",
"5. c #C6A85D",
"6. c #CCAA5D",
"7. c #C7A35C",
"8. c #D4A853",
"9. c #DAAB53",
"0. c #DFB156",
"q. c #DBB15A",
"w. c #E4B958",
"e. c #C09F68",
"r. c #C9A866",
"t. c #D0AE69",
"y. c #CDB36B",
"u. c #DAB565",
"i. c #D2B46A",
"p. c #D9B968",
"a. c #C4AD76",
"s. c #C3A57B",
"d. c #C6A87E",
"f. c #C9AD7A",
"g. c #CDB57A",
"h. c #CDB573",
"j. c #DFBE74",
"k. c #D8B878",
"l. c #E8BE62",
"z. c #E4BF66",
"x. c #E0BE73",
"c. c #E9C159",
"v. c #DFC16D",
"b. c #DDC177",
"n. c #EAC264",
"m. c #E4C16B",
"M. c #EBC66B",
"N. c #EFCA6C",
"B. c #E8C566",
"V. c #F2CD6E",
"C. c #E1C372",
"Z. c #E1C47B",
"A. c #E9C774",
"S. c #F2CE70",
"D. c #EFD07A",
"F. c #F5D373",
"G. c #F8D776",
"H. c #F4D47B",
"J. c #FBDA7D",
"K. c #FAD877",
"L. c #B8A884",
"P. c #C7AA83",
"I. c #CAAE87",
"U. c #C2A681",
"Y. c #D5BE8A",
"T. c #D1BD95",
"R. c #C9BFAC",
"E. c #CBBFA6",
"W. c #DFC689",
"Q. c #CFC09F",
"!. c #D7C496",
"~. c #D8C597",
"^. c #E5CA84",
"/. c #E3C88B",
"(. c #E9D08D",
"). c #FBDB83",
"_. c #FBDE8C",
"`. c #F3D787",
"'. c #E3CC9C",
"]. c #E5CE94",
"[. c #ECD49D",
"{. c #E8D296",
"}. c #F5DB9A",
"|. c #F9DD95",
" X c #FFE28E",
".X c #FDE193",
"XX c #FDE29B",
"oX c #D7CAA8",
"OX c #D3CBB9",
"+X c #D4CBB7",
"@X c #CFC7B5",
"#X c #EBD5A2",
"$X c #EAD6A9",
"%X c #F2DCA9",
"&X c #EEDDB6",
"*X c #F2DFB1",
"=X c #FEE6AD",
"-X c #FDE3A2",
";X c #FDE7B6",
":X c #FFE9B4",
">X c #F3E1BA",
/* pixels */
"                        0 w e e e e 6 ,                         ",
"                  0 p g f i e 7 6 7 7 7 e 7 ;                   ",
"              4 x m i r a l A G A l d 7 , > 7 7 &               ",
"            z v p d G *.b.D.H.M.B.M.B.6._ h > > 8 >             ",
"          x v f G a.[.XX.X XF.u.p.N.V.N.c.u._ a ; 2 <           ",
"        x v i ' #X&XOX[.M.).0.4.2.w.N.c.b.oXj.8.C , 2 2         ",
"      y c i { $X>X&XOX%XM.3.^ ! W ^ ~ c.^.Q.C.j.i.H , 7 >       ",
"    , c 7 ] }.+XOX;X:X=X}.~ Q Q W W ~ F.F.S.A.@XT.q.C ; 7 &     ",
"    p r l {.-X%X&X:X:X:X;Xr.>.<.4.2.M.J.K.F.S.Z.Z.x.6.s 1 7     ",
"  0 f e y.oX@X{.@.;.$X$X@.L s.#.=. .( O.F.v.] { x.R.Y._ 1 2 ;   ",
"  i 6 G `.{.#Xg.@ $ ~.L.o z -.$. .* . V  X*.+ * p./.Z.u.d > 7   ",
"  a 6 *.oX'. Xh.@ $ !.;.o t $.%.y . 0 y. X*.+ * p.F.!.E.` ; 8   ",
"< r 9 v.~.{. Xy.@ $ Y. .. 0 L.M X $  .h..X=.+ * v.F.W.!.6.< 7 > ",
"6 6 l N.F.J.J.y.@ $ &.N X q L + + L s.s./.=.O * b.J.F.S.z.s 7 < ",
"e < A N.S.G.J.y.@ @ ( M O $ * O v -.s.s.f.=.+ * C.J.G.F.N.l > 7 ",
"7 < H n.M.V.G.y.@ @ K M O X X 4 @.-.-.d.d.X.+ * Z. XJ.K.F.D > e ",
"3 1 S w.l.V.S.r.@ @ K K o o o - ..-.U.U.I.T o - /._.).J.G.G > e ",
"3 1 C 0.w.w.N.r.@ @ U U o * 4 . u %.$.U.I.T o 4 /.|._.).H.C < e ",
"3 < h 8.w.w.l.<.@ + ` U o 5 I # o N $.U.I. .o = ].XX|._.D.h e e ",
"; 3 3 >.9.0.l.] + @ ] P o t +.N o # T s.I. .o 4 '.-XXX.Xb.9 r 5 ",
"  7 1 ) 3.9.9.F O @ ] ` + 5 o.o.u o 4 X.U.T o 4 '.=XXXXXO.6 f   ",
"  3 1 h 1.1.[ F @ O U o.5 5 o.+.' 4 o D s.T o 4 $X=X=X}.D w i   ",
"  ; 2 < R 1.Y J * . j <.` n +.+.e.I t ..s.b X 5 '.:X:Xa.e g 0   ",
"    3 1 h :.Y Y k X * [ 7.7.t.t.t.t.e.g.X.$ X L I.;X#XB i p     ",
"    % 2 ; Z ,._ F # X 7 ` } } } +.O.*.' 0 X = X.%.#X' e c 0     ",
"      ; 2 > S :.:.Z + X 5 _ t.z.M.v.' = . $ =.}.[.{ a v y       ",
"        > 2 1 Z ,.1.Z + . + < f p 6 O . * O. X`.{ d c x         ",
"          > 2 ; s R :.) e @ o . . . $ j y.).i./ d v x           ",
"            1 2 ; < h R >.) S l D / 5.v.6./ s g v y             ",
"              ; 2 3 > ; 7 d Z S S S l d e i p p 0               ",
"                  ; 2 8 7 > > 6 6 6 r i f i 0                   ",
"                        ; 6 6 e 9 e w 6                         "
};
